<?xml version="1.0" standalone="no"?><!DOCTYPE svg PUBLIC "-//W3C//DTD SVG 1.1//EN" "http://www.w3.org/Graphics/SVG/1.1/DTD/svg11.dtd"><svg t="1563371111689" class="icon" viewBox="0 0 1024 1024" version="1.1" xmlns="http://www.w3.org/2000/svg" p-id="1284" xmlns:xlink="http://www.w3.org/1999/xlink" width="200" height="200"><defs><style type="text/css"></style></defs><path d="M691.2 768H332.8c-16.290909 0-30.254545-16.290909-30.254545-34.909091s13.963636-34.909091 30.254545-34.909091h356.072727c16.290909 0 30.254545 16.290909 30.254546 34.909091 2.327273 18.618182-11.636364 34.909091-27.927273 34.909091z m0-221.090909H335.127273c-16.290909 0-30.254545-16.290909-30.254546-34.909091s13.963636-34.909091 30.254546-34.909091h356.072727c16.290909 0 30.254545 16.290909 30.254545 34.909091s-13.963636 34.909091-30.254545 34.909091z m0-221.090909H332.8c-16.290909 0-30.254545-16.290909-30.254545-34.909091s13.963636-34.909091 30.254545-34.909091h356.072727c16.290909 0 30.254545 16.290909 30.254546 34.909091 2.327273 20.945455-11.636364 34.909091-27.927273 34.909091z" fill="#333333" p-id="1285"></path></svg>